# Blender v2.79 (sub 0) OBJ File: ''
# www.blender.org
o Cube_Cube.001
v -0.486154 -0.199718 -0.040000
v -0.486154 0.200282 -0.040000
v -0.486154 -0.199718 0.040000
v -0.486154 0.200282 0.040000
v -0.286154 -0.199718 -0.040000
v -0.286154 0.200282 -0.040000
v -0.286154 -0.199718 0.040000
v -0.286154 0.200282 0.040000
v -0.289230 -0.000565 -0.040000
v -0.289230 -0.000565 0.040000
v -0.086154 -0.000565 0.040000
v -0.086154 -0.000565 -0.040000
v -0.166154 -0.199718 -0.040000
v -0.166154 0.200282 -0.040000
v -0.166154 -0.199718 0.040000
v -0.166154 0.200282 0.040000
v 0.033846 -0.199718 -0.040000
v 0.033846 0.200282 -0.040000
v 0.033846 -0.199718 0.040000
v 0.033846 0.200282 0.040000
v 0.030770 -0.000565 -0.040000
v 0.030770 -0.000565 0.040000
v 0.233846 -0.000565 0.040000
v 0.233846 -0.000565 -0.040000
v 0.153846 -0.199718 -0.040000
v 0.153846 0.200282 -0.040000
v 0.153846 -0.199718 0.040000
v 0.153846 0.200282 0.040000
v 0.353846 -0.199718 -0.040000
v 0.353846 0.200282 -0.040000
v 0.353846 -0.199718 0.040000
v 0.353846 0.200282 0.040000
v 0.350770 -0.000565 -0.040000
v 0.350770 -0.000565 0.040000
v 0.553846 -0.000565 0.040000
v 0.553846 -0.000565 -0.040000
vn -0.4302 0.0009 0.9027
vn -0.7717 0.3241 -0.5472
vn -0.4302 0.0009 -0.9027
vn 0.2979 0.7171 0.6301
vn -0.7717 0.3241 0.5472
vn 0.8165 -0.0017 -0.5773
vn 0.8165 -0.0017 0.5773
vn 0.2979 0.7171 -0.6301
vn -0.7725 -0.3225 -0.5470
vn 0.2963 -0.7175 0.6304
vn -0.7725 -0.3225 0.5470
vn 0.2963 -0.7175 -0.6304
s 1
f 10//1 2//2 9//3
f 10//1 8//4 4//5
f 12//6 8//4 11//7
f 9//3 6//8 12//6
f 1//9 7//10 3//11
f 6//8 4//5 8//4
f 5//12 9//3 12//6
f 5//12 11//7 7//10
f 7//10 10//1 3//11
f 3//11 9//3 1//9
f 22//1 14//2 21//3
f 22//1 20//4 16//5
f 24//6 20//4 23//7
f 21//3 18//8 24//6
f 13//9 19//10 15//11
f 18//8 16//5 20//4
f 17//12 21//3 24//6
f 17//12 23//7 19//10
f 19//10 22//1 15//11
f 15//11 21//3 13//9
f 34//1 26//2 33//3
f 34//1 32//4 28//5
f 36//6 32//4 35//7
f 33//3 30//8 36//6
f 25//9 31//10 27//11
f 30//8 28//5 32//4
f 29//12 33//3 36//6
f 29//12 35//7 31//10
f 31//10 34//1 27//11
f 27//11 33//3 25//9
f 10//1 4//5 2//2
f 10//1 11//7 8//4
f 12//6 6//8 8//4
f 9//3 2//2 6//8
f 1//9 5//12 7//10
f 6//8 2//2 4//5
f 5//12 1//9 9//3
f 5//12 12//6 11//7
f 7//10 11//7 10//1
f 3//11 10//1 9//3
f 22//1 16//5 14//2
f 22//1 23//7 20//4
f 24//6 18//8 20//4
f 21//3 14//2 18//8
f 13//9 17//12 19//10
f 18//8 14//2 16//5
f 17//12 13//9 21//3
f 17//12 24//6 23//7
f 19//10 23//7 22//1
f 15//11 22//1 21//3
f 34//1 28//5 26//2
f 34//1 35//7 32//4
f 36//6 30//8 32//4
f 33//3 26//2 30//8
f 25//9 29//12 31//10
f 30//8 26//2 28//5
f 29//12 25//9 33//3
f 29//12 36//6 35//7
f 31//10 35//7 34//1
f 27//11 34//1 33//3
